<mxfile host="app.diagrams.net" modified="2020-11-22T10:45:33.641Z" agent="5.0 (Macintosh; Intel Mac OS X 10_14_0) AppleWebKit/537.36 (KHTML, like Gecko) Chrome/86.0.4240.193 Safari/537.36" etag="DKKxXOlj8bzPgH7ZJNV8" version="13.10.0" type="github">
  <diagram id="onxhnWPnqhLU__DKsyuA" name="Page-1">
    <mxGraphModel dx="1426" dy="737" grid="1" gridSize="10" guides="1" tooltips="1" connect="1" arrows="1" fold="1" page="1" pageScale="1" pageWidth="1169" pageHeight="1654" math="0" shadow="0">
      <root>
        <mxCell id="0" />
        <mxCell id="1" parent="0" />
        <mxCell id="F5_PWc8lOzp_SU4X4ztF-57" style="edgeStyle=orthogonalEdgeStyle;rounded=1;sketch=0;jumpSize=25;orthogonalLoop=1;jettySize=auto;html=1;exitX=1;exitY=0.5;exitDx=0;exitDy=0;entryX=0;entryY=0.5;entryDx=0;entryDy=0;shadow=0;strokeColor=#7EA6E0;strokeWidth=2;" edge="1" parent="1" source="F5_PWc8lOzp_SU4X4ztF-2" target="F5_PWc8lOzp_SU4X4ztF-6">
          <mxGeometry relative="1" as="geometry" />
        </mxCell>
        <mxCell id="F5_PWc8lOzp_SU4X4ztF-2" value="&lt;p class=&quot;p1&quot; style=&quot;margin: 0px ; font-stretch: normal ; line-height: normal ; font-family: &amp;#34;helvetica neue&amp;#34;&quot;&gt;&lt;font style=&quot;font-size: 12px&quot;&gt;&lt;i&gt;&lt;br&gt;&lt;/i&gt;&lt;/font&gt;&lt;/p&gt;&lt;p class=&quot;p1&quot; style=&quot;margin: 0px ; font-stretch: normal ; line-height: normal ; font-family: &amp;#34;helvetica neue&amp;#34;&quot;&gt;&lt;font style=&quot;font-size: 12px&quot;&gt;&lt;i&gt;RE&lt;sub&gt;1&lt;/sub&gt;: \sLOGIN\s[^\n]{100}&lt;/i&gt;&lt;br&gt;&lt;/font&gt;&lt;/p&gt;&lt;p class=&quot;p1&quot; style=&quot;margin: 0px ; font-stretch: normal ; line-height: normal ; font-family: &amp;#34;helvetica neue&amp;#34;&quot;&gt;&lt;span class=&quot;s1&quot;&gt;&lt;i&gt;&lt;font style=&quot;font-size: 12px&quot;&gt;RE&lt;sub&gt;2&lt;/sub&gt;: ^SEARCH\s+[^\n]{1024}&lt;/font&gt;&lt;/i&gt;&lt;/span&gt;&lt;/p&gt;&lt;p class=&quot;p1&quot; style=&quot;margin: 0px ; font-stretch: normal ; line-height: normal ; font-family: &amp;#34;helvetica neue&amp;#34;&quot;&gt;&lt;span class=&quot;s1&quot;&gt;&lt;i&gt;&lt;font style=&quot;font-size: 12px&quot;&gt;RE&lt;sub&gt;3&lt;/sub&gt;: DELETE.+FROM&lt;/font&gt;&lt;/i&gt;&lt;/span&gt;&lt;/p&gt;&lt;p class=&quot;p1&quot; style=&quot;margin: 0px ; font-stretch: normal ; line-height: normal ; font-family: &amp;#34;helvetica neue&amp;#34;&quot;&gt;&lt;span class=&quot;s1&quot;&gt;&lt;i&gt;&lt;font style=&quot;font-size: 12px&quot;&gt;RE&lt;sub&gt;4&lt;/sub&gt;: abc.{5}def\s*.{5}gh&lt;/font&gt;&lt;/i&gt;&lt;/span&gt;&lt;/p&gt;&lt;p class=&quot;p1&quot; style=&quot;margin: 0px ; font-stretch: normal ; line-height: normal ; font-family: &amp;#34;helvetica neue&amp;#34;&quot;&gt;&lt;span class=&quot;s1&quot;&gt;&lt;i&gt;&lt;font style=&quot;font-size: 12px&quot;&gt;...&lt;/font&gt;&lt;/i&gt;&lt;/span&gt;&lt;/p&gt;" style="shape=document;whiteSpace=wrap;html=1;boundedLbl=1;align=left;" vertex="1" parent="1">
          <mxGeometry x="10" y="340" width="190" height="110" as="geometry" />
        </mxCell>
        <mxCell id="F5_PWc8lOzp_SU4X4ztF-58" style="edgeStyle=orthogonalEdgeStyle;rounded=1;sketch=0;jumpSize=25;orthogonalLoop=1;jettySize=auto;html=1;exitX=0.5;exitY=0;exitDx=0;exitDy=0;shadow=0;strokeColor=#7EA6E0;strokeWidth=2;" edge="1" parent="1" source="F5_PWc8lOzp_SU4X4ztF-6" target="F5_PWc8lOzp_SU4X4ztF-8">
          <mxGeometry relative="1" as="geometry" />
        </mxCell>
        <mxCell id="F5_PWc8lOzp_SU4X4ztF-59" style="edgeStyle=orthogonalEdgeStyle;rounded=1;sketch=0;jumpSize=25;orthogonalLoop=1;jettySize=auto;html=1;exitX=0.5;exitY=1;exitDx=0;exitDy=0;entryX=0.5;entryY=0;entryDx=0;entryDy=0;shadow=0;strokeColor=#7EA6E0;strokeWidth=2;" edge="1" parent="1" source="F5_PWc8lOzp_SU4X4ztF-6" target="F5_PWc8lOzp_SU4X4ztF-10">
          <mxGeometry relative="1" as="geometry" />
        </mxCell>
        <mxCell id="F5_PWc8lOzp_SU4X4ztF-60" style="edgeStyle=orthogonalEdgeStyle;rounded=1;sketch=0;jumpSize=25;orthogonalLoop=1;jettySize=auto;html=1;exitX=1;exitY=0.5;exitDx=0;exitDy=0;entryX=0;entryY=0.5;entryDx=0;entryDy=0;shadow=0;strokeColor=#7EA6E0;strokeWidth=2;" edge="1" parent="1" source="F5_PWc8lOzp_SU4X4ztF-6" target="F5_PWc8lOzp_SU4X4ztF-24">
          <mxGeometry relative="1" as="geometry" />
        </mxCell>
        <mxCell id="F5_PWc8lOzp_SU4X4ztF-6" value="regex decomposition" style="shape=process;whiteSpace=wrap;html=1;backgroundOutline=1;fillColor=#bac8d3;strokeColor=#23445d;" vertex="1" parent="1">
          <mxGeometry x="260" y="365" width="120" height="60" as="geometry" />
        </mxCell>
        <mxCell id="F5_PWc8lOzp_SU4X4ztF-61" style="edgeStyle=orthogonalEdgeStyle;rounded=1;sketch=0;jumpSize=25;orthogonalLoop=1;jettySize=auto;html=1;entryX=0;entryY=0.5;entryDx=0;entryDy=0;shadow=0;strokeColor=#7EA6E0;strokeWidth=2;" edge="1" parent="1" source="F5_PWc8lOzp_SU4X4ztF-8" target="F5_PWc8lOzp_SU4X4ztF-12">
          <mxGeometry relative="1" as="geometry" />
        </mxCell>
        <mxCell id="F5_PWc8lOzp_SU4X4ztF-8" value="&lt;p class=&quot;p1&quot; style=&quot;margin: 0px ; font-stretch: normal ; line-height: normal&quot;&gt;&lt;font face=&quot;helvetica neue&quot; style=&quot;font-size: 12px&quot;&gt;&lt;i&gt;&lt;br&gt;&lt;/i&gt;&lt;/font&gt;&lt;/p&gt;&lt;p class=&quot;p1&quot; style=&quot;margin: 0px ; font-stretch: normal ; line-height: normal&quot;&gt;&lt;font face=&quot;helvetica neue&quot; style=&quot;font-size: 12px&quot;&gt;&lt;i&gt;prefix&lt;sub&gt;1&lt;/sub&gt;: \sLOGIN\s&lt;/i&gt;&lt;/font&gt;&lt;/p&gt;&lt;p class=&quot;p1&quot; style=&quot;margin: 0px ; font-stretch: normal ; line-height: normal&quot;&gt;&lt;font face=&quot;helvetica neue&quot; style=&quot;font-size: 12px&quot;&gt;&lt;i&gt;prefix&lt;sub&gt;2&lt;/sub&gt;: ^SEARCH\s+&lt;/i&gt;&lt;/font&gt;&lt;/p&gt;&lt;p class=&quot;p1&quot; style=&quot;margin: 0px ; font-stretch: normal ; line-height: normal&quot;&gt;&lt;font face=&quot;helvetica neue&quot; style=&quot;font-size: 12px&quot;&gt;&lt;i&gt;prefix&lt;sub&gt;3&lt;/sub&gt;: DELETE.+FROM&lt;/i&gt;&lt;/font&gt;&lt;/p&gt;&lt;p class=&quot;p1&quot; style=&quot;margin: 0px ; font-stretch: normal ; line-height: normal&quot;&gt;&lt;font face=&quot;helvetica neue&quot; style=&quot;font-size: 12px&quot;&gt;&lt;i&gt;prefix&lt;sub&gt;4&lt;/sub&gt;: abc&lt;/i&gt;&lt;/font&gt;&lt;/p&gt;&lt;p class=&quot;p1&quot; style=&quot;margin: 0px ; font-stretch: normal ; line-height: normal&quot;&gt;&lt;font face=&quot;helvetica neue&quot; style=&quot;font-size: 12px&quot;&gt;&lt;i&gt;...&lt;/i&gt;&lt;/font&gt;&lt;/p&gt;" style="shape=document;whiteSpace=wrap;html=1;boundedLbl=1;align=left;" vertex="1" parent="1">
          <mxGeometry x="225" y="180" width="190" height="110" as="geometry" />
        </mxCell>
        <mxCell id="F5_PWc8lOzp_SU4X4ztF-72" style="edgeStyle=orthogonalEdgeStyle;rounded=1;sketch=0;jumpSize=25;orthogonalLoop=1;jettySize=auto;html=1;entryX=0;entryY=0.5;entryDx=0;entryDy=0;shadow=0;strokeColor=#7EA6E0;strokeWidth=2;" edge="1" parent="1" source="F5_PWc8lOzp_SU4X4ztF-10" target="F5_PWc8lOzp_SU4X4ztF-18">
          <mxGeometry relative="1" as="geometry" />
        </mxCell>
        <mxCell id="F5_PWc8lOzp_SU4X4ztF-10" value="&lt;p class=&quot;p1&quot; style=&quot;margin: 0px ; font-stretch: normal ; line-height: normal&quot;&gt;&lt;font face=&quot;helvetica neue&quot; style=&quot;font-size: 12px&quot;&gt;&lt;i&gt;&lt;br&gt;&lt;/i&gt;&lt;/font&gt;&lt;/p&gt;&lt;p class=&quot;p1&quot; style=&quot;margin: 0px ; font-stretch: normal ; line-height: normal&quot;&gt;&lt;font face=&quot;helvetica neue&quot; style=&quot;font-size: 12px&quot;&gt;&lt;i&gt;postfix&lt;sub&gt;1&lt;/sub&gt;: ^[^\n]{100}&lt;/i&gt;&lt;/font&gt;&lt;/p&gt;&lt;p class=&quot;p1&quot; style=&quot;margin: 0px ; font-stretch: normal ; line-height: normal&quot;&gt;&lt;font face=&quot;helvetica neue&quot; style=&quot;font-size: 12px&quot;&gt;&lt;i&gt;postfix&lt;sub&gt;2&lt;/sub&gt;: ^[^\n]{1024}&lt;/i&gt;&lt;/font&gt;&lt;/p&gt;&lt;p class=&quot;p1&quot; style=&quot;margin: 0px ; font-stretch: normal ; line-height: normal&quot;&gt;&lt;font face=&quot;helvetica neue&quot; style=&quot;font-size: 12px&quot;&gt;&lt;i&gt;postfix&lt;sub&gt;3&lt;/sub&gt;: ^.{5}def\s*&lt;/i&gt;&lt;/font&gt;&lt;/p&gt;&lt;p class=&quot;p1&quot; style=&quot;margin: 0px ; font-stretch: normal ; line-height: normal&quot;&gt;&lt;font face=&quot;helvetica neue&quot; style=&quot;font-size: 12px&quot;&gt;&lt;i&gt;postfix&lt;sub&gt;4&lt;/sub&gt;: ^.{5}gh&lt;/i&gt;&lt;/font&gt;&lt;/p&gt;&lt;p class=&quot;p1&quot; style=&quot;margin: 0px ; font-stretch: normal ; line-height: normal&quot;&gt;&lt;font face=&quot;helvetica neue&quot; style=&quot;font-size: 12px&quot;&gt;&lt;i&gt;...&lt;/i&gt;&lt;/font&gt;&lt;/p&gt;" style="shape=document;whiteSpace=wrap;html=1;boundedLbl=1;align=left;" vertex="1" parent="1">
          <mxGeometry x="225" y="500" width="190" height="110" as="geometry" />
        </mxCell>
        <mxCell id="F5_PWc8lOzp_SU4X4ztF-62" style="edgeStyle=orthogonalEdgeStyle;rounded=1;sketch=0;jumpSize=25;orthogonalLoop=1;jettySize=auto;html=1;exitX=0.5;exitY=0;exitDx=0;exitDy=0;entryX=0.5;entryY=0.882;entryDx=0;entryDy=0;entryPerimeter=0;shadow=0;strokeColor=#7EA6E0;strokeWidth=2;" edge="1" parent="1" source="F5_PWc8lOzp_SU4X4ztF-12" target="F5_PWc8lOzp_SU4X4ztF-14">
          <mxGeometry relative="1" as="geometry" />
        </mxCell>
        <mxCell id="F5_PWc8lOzp_SU4X4ztF-12" value="regex grouping" style="shape=process;whiteSpace=wrap;html=1;backgroundOutline=1;fillColor=#bac8d3;strokeColor=#23445d;" vertex="1" parent="1">
          <mxGeometry x="490" y="205" width="120" height="60" as="geometry" />
        </mxCell>
        <mxCell id="F5_PWc8lOzp_SU4X4ztF-63" style="edgeStyle=orthogonalEdgeStyle;rounded=1;sketch=0;jumpSize=25;orthogonalLoop=1;jettySize=auto;html=1;exitX=1;exitY=0.5;exitDx=0;exitDy=0;shadow=0;strokeColor=#7EA6E0;strokeWidth=2;" edge="1" parent="1" source="F5_PWc8lOzp_SU4X4ztF-14">
          <mxGeometry relative="1" as="geometry">
            <mxPoint x="720" y="65" as="targetPoint" />
          </mxGeometry>
        </mxCell>
        <mxCell id="F5_PWc8lOzp_SU4X4ztF-14" value="&lt;p class=&quot;p1&quot; style=&quot;margin: 0px ; font-stretch: normal ; line-height: normal&quot;&gt;&lt;font face=&quot;helvetica neue&quot; style=&quot;font-size: 12px&quot;&gt;&lt;i&gt;group&lt;sub&gt;1&lt;/sub&gt;: {prefix&lt;sub&gt;1&lt;/sub&gt;, prefix&lt;sub&gt;2&lt;/sub&gt;}&lt;/i&gt;&lt;/font&gt;&lt;/p&gt;&lt;p class=&quot;p1&quot; style=&quot;margin: 0px ; font-stretch: normal ; line-height: normal&quot;&gt;&lt;font face=&quot;helvetica neue&quot; style=&quot;font-size: 12px&quot;&gt;&lt;i&gt;group&lt;sub&gt;2&lt;/sub&gt;: {prefix&lt;sub&gt;3&lt;/sub&gt;, prefix&lt;sub&gt;4&lt;/sub&gt;}&lt;/i&gt;&lt;/font&gt;&lt;/p&gt;&lt;p class=&quot;p1&quot; style=&quot;margin: 0px ; font-stretch: normal ; line-height: normal&quot;&gt;&lt;font face=&quot;helvetica neue&quot; style=&quot;font-size: 12px&quot;&gt;&lt;i&gt;...&lt;/i&gt;&lt;/font&gt;&lt;/p&gt;" style="shape=document;whiteSpace=wrap;html=1;boundedLbl=1;align=left;" vertex="1" parent="1">
          <mxGeometry x="455" y="10" width="190" height="110" as="geometry" />
        </mxCell>
        <mxCell id="F5_PWc8lOzp_SU4X4ztF-65" style="edgeStyle=orthogonalEdgeStyle;rounded=1;sketch=0;jumpSize=25;orthogonalLoop=1;jettySize=auto;html=1;shadow=0;strokeColor=#7EA6E0;strokeWidth=2;entryX=0.5;entryY=0;entryDx=0;entryDy=0;" edge="1" parent="1" source="F5_PWc8lOzp_SU4X4ztF-16" target="F5_PWc8lOzp_SU4X4ztF-20">
          <mxGeometry relative="1" as="geometry">
            <mxPoint x="785" y="170" as="targetPoint" />
          </mxGeometry>
        </mxCell>
        <mxCell id="F5_PWc8lOzp_SU4X4ztF-16" value="DFA construct" style="shape=process;whiteSpace=wrap;html=1;backgroundOutline=1;fillColor=#bac8d3;strokeColor=#23445d;" vertex="1" parent="1">
          <mxGeometry x="725" y="35" width="120" height="60" as="geometry" />
        </mxCell>
        <mxCell id="F5_PWc8lOzp_SU4X4ztF-73" style="edgeStyle=orthogonalEdgeStyle;rounded=1;sketch=0;jumpSize=25;orthogonalLoop=1;jettySize=auto;html=1;entryX=0;entryY=0.5;entryDx=0;entryDy=0;shadow=0;strokeColor=#7EA6E0;strokeWidth=2;" edge="1" parent="1" source="F5_PWc8lOzp_SU4X4ztF-18" target="F5_PWc8lOzp_SU4X4ztF-22">
          <mxGeometry relative="1" as="geometry" />
        </mxCell>
        <mxCell id="F5_PWc8lOzp_SU4X4ztF-18" value="DFA construct" style="shape=process;whiteSpace=wrap;html=1;backgroundOutline=1;fillColor=#bac8d3;strokeColor=#23445d;" vertex="1" parent="1">
          <mxGeometry x="490" y="525" width="120" height="60" as="geometry" />
        </mxCell>
        <mxCell id="F5_PWc8lOzp_SU4X4ztF-54" style="edgeStyle=orthogonalEdgeStyle;rounded=1;sketch=0;jumpSize=25;orthogonalLoop=1;jettySize=auto;html=1;exitX=1;exitY=0.5;exitDx=0;exitDy=0;shadow=0;strokeColor=#7EA6E0;strokeWidth=2;entryX=0;entryY=0.5;entryDx=0;entryDy=0;" edge="1" parent="1" source="F5_PWc8lOzp_SU4X4ztF-20" target="F5_PWc8lOzp_SU4X4ztF-50">
          <mxGeometry relative="1" as="geometry">
            <mxPoint x="960" y="235" as="targetPoint" />
          </mxGeometry>
        </mxCell>
        <mxCell id="F5_PWc8lOzp_SU4X4ztF-20" value="&lt;p class=&quot;p1&quot; style=&quot;margin: 0px ; font-stretch: normal ; line-height: normal&quot;&gt;&lt;font face=&quot;helvetica neue&quot; style=&quot;font-size: 12px&quot;&gt;&lt;i&gt;front-end DFA&lt;sub&gt;1&lt;/sub&gt;&lt;/i&gt;&lt;/font&gt;&lt;/p&gt;&lt;p class=&quot;p1&quot; style=&quot;margin: 0px ; font-stretch: normal ; line-height: normal&quot;&gt;&lt;font face=&quot;helvetica neue&quot; style=&quot;font-size: 12px&quot;&gt;&lt;i&gt;front-end DFA&lt;sub&gt;2&lt;/sub&gt;&lt;/i&gt;&lt;/font&gt;&lt;/p&gt;&lt;p class=&quot;p1&quot; style=&quot;margin: 0px ; font-stretch: normal ; line-height: normal&quot;&gt;&lt;font face=&quot;helvetica neue&quot; style=&quot;font-size: 12px&quot;&gt;&lt;i&gt;...&lt;/i&gt;&lt;/font&gt;&lt;/p&gt;" style="shape=document;whiteSpace=wrap;html=1;boundedLbl=1;align=left;" vertex="1" parent="1">
          <mxGeometry x="690" y="180" width="190" height="110" as="geometry" />
        </mxCell>
        <mxCell id="F5_PWc8lOzp_SU4X4ztF-56" style="edgeStyle=orthogonalEdgeStyle;rounded=1;sketch=0;jumpSize=25;orthogonalLoop=1;jettySize=auto;html=1;exitX=1;exitY=0.5;exitDx=0;exitDy=0;entryX=-0.033;entryY=0.6;entryDx=0;entryDy=0;entryPerimeter=0;shadow=0;strokeColor=#7EA6E0;strokeWidth=2;" edge="1" parent="1" source="F5_PWc8lOzp_SU4X4ztF-22" target="F5_PWc8lOzp_SU4X4ztF-52">
          <mxGeometry relative="1" as="geometry" />
        </mxCell>
        <mxCell id="F5_PWc8lOzp_SU4X4ztF-22" value="&lt;p class=&quot;p1&quot; style=&quot;margin: 0px ; font-stretch: normal ; line-height: normal&quot;&gt;&lt;font face=&quot;helvetica neue&quot; style=&quot;font-size: 12px&quot;&gt;&lt;i&gt;&lt;br&gt;&lt;/i&gt;&lt;/font&gt;&lt;/p&gt;&lt;p class=&quot;p1&quot; style=&quot;margin: 0px ; font-stretch: normal ; line-height: normal&quot;&gt;&lt;font face=&quot;helvetica neue&quot; style=&quot;font-size: 12px&quot;&gt;&lt;i&gt;back-end DFA&lt;sub&gt;1&lt;/sub&gt;&lt;/i&gt;&lt;/font&gt;&lt;/p&gt;&lt;p class=&quot;p1&quot; style=&quot;margin: 0px ; font-stretch: normal ; line-height: normal&quot;&gt;&lt;font face=&quot;helvetica neue&quot; style=&quot;font-size: 12px&quot;&gt;&lt;i&gt;back-end DFA&lt;sub&gt;2&lt;/sub&gt;&lt;/i&gt;&lt;/font&gt;&lt;/p&gt;&lt;p class=&quot;p1&quot; style=&quot;margin: 0px ; font-stretch: normal ; line-height: normal&quot;&gt;&lt;font face=&quot;helvetica neue&quot; style=&quot;font-size: 12px&quot;&gt;&lt;i&gt;back-end DFA&lt;sub&gt;3&lt;/sub&gt;&lt;/i&gt;&lt;/font&gt;&lt;/p&gt;&lt;p class=&quot;p1&quot; style=&quot;margin: 0px ; font-stretch: normal ; line-height: normal&quot;&gt;&lt;font face=&quot;helvetica neue&quot; style=&quot;font-size: 12px&quot;&gt;&lt;i&gt;back-end DFA&lt;sub&gt;4&lt;/sub&gt;&lt;/i&gt;&lt;/font&gt;&lt;/p&gt;&lt;p class=&quot;p1&quot; style=&quot;margin: 0px ; font-stretch: normal ; line-height: normal&quot;&gt;&lt;font face=&quot;helvetica neue&quot; style=&quot;font-size: 12px&quot;&gt;&lt;i&gt;...&lt;/i&gt;&lt;/font&gt;&lt;/p&gt;" style="shape=document;whiteSpace=wrap;html=1;boundedLbl=1;align=left;" vertex="1" parent="1">
          <mxGeometry x="690" y="500" width="190" height="110" as="geometry" />
        </mxCell>
        <mxCell id="F5_PWc8lOzp_SU4X4ztF-55" style="edgeStyle=orthogonalEdgeStyle;rounded=1;sketch=0;jumpSize=25;orthogonalLoop=1;jettySize=auto;html=1;exitX=1;exitY=0.5;exitDx=0;exitDy=0;entryX=0;entryY=0.25;entryDx=0;entryDy=0;shadow=0;strokeColor=#7EA6E0;strokeWidth=2;" edge="1" parent="1" source="F5_PWc8lOzp_SU4X4ztF-24" target="F5_PWc8lOzp_SU4X4ztF-52">
          <mxGeometry relative="1" as="geometry" />
        </mxCell>
        <mxCell id="F5_PWc8lOzp_SU4X4ztF-24" value="&lt;p class=&quot;p1&quot; style=&quot;margin: 0px ; font-stretch: normal ; line-height: normal&quot;&gt;&lt;font face=&quot;helvetica neue&quot; style=&quot;font-size: 12px&quot;&gt;&lt;i&gt;prefix&lt;sub&gt;1&lt;/sub&gt; -&amp;gt; postfix&lt;sub&gt;1&lt;/sub&gt;&lt;/i&gt;&lt;/font&gt;&lt;/p&gt;&lt;p class=&quot;p1&quot; style=&quot;margin: 0px ; font-stretch: normal ; line-height: normal&quot;&gt;&lt;font face=&quot;helvetica neue&quot; style=&quot;font-size: 12px&quot;&gt;&lt;i&gt;prefix&lt;sub&gt;2&lt;/sub&gt; -&amp;gt; postfix&lt;sub&gt;2&lt;/sub&gt;&lt;/i&gt;&lt;/font&gt;&lt;/p&gt;&lt;p class=&quot;p1&quot; style=&quot;margin: 0px ; font-stretch: normal ; line-height: normal&quot;&gt;&lt;font face=&quot;helvetica neue&quot; style=&quot;font-size: 12px&quot;&gt;&lt;i&gt;prefix&lt;sub&gt;4&lt;/sub&gt; -&amp;gt; postfix&lt;sub&gt;3&lt;/sub&gt; -&amp;gt; postfix&lt;sub&gt;4&lt;/sub&gt;&lt;/i&gt;&lt;/font&gt;&lt;/p&gt;&lt;p class=&quot;p1&quot; style=&quot;margin: 0px ; font-stretch: normal ; line-height: normal&quot;&gt;&lt;font face=&quot;helvetica neue&quot; style=&quot;font-size: 12px&quot;&gt;&lt;i&gt;...&lt;/i&gt;&lt;/font&gt;&lt;/p&gt;" style="shape=document;whiteSpace=wrap;html=1;boundedLbl=1;align=left;" vertex="1" parent="1">
          <mxGeometry x="690" y="340" width="190" height="110" as="geometry" />
        </mxCell>
        <mxCell id="F5_PWc8lOzp_SU4X4ztF-53" style="edgeStyle=orthogonalEdgeStyle;rounded=1;sketch=0;jumpSize=25;orthogonalLoop=1;jettySize=auto;html=1;entryX=1;entryY=0.5;entryDx=0;entryDy=0;shadow=0;strokeColor=#7EA6E0;strokeWidth=2;" edge="1" parent="1" source="F5_PWc8lOzp_SU4X4ztF-31" target="F5_PWc8lOzp_SU4X4ztF-52">
          <mxGeometry relative="1" as="geometry">
            <Array as="points">
              <mxPoint x="1120" y="70" />
              <mxPoint x="1120" y="535" />
            </Array>
          </mxGeometry>
        </mxCell>
        <mxCell id="F5_PWc8lOzp_SU4X4ztF-67" style="edgeStyle=orthogonalEdgeStyle;rounded=1;sketch=0;jumpSize=25;orthogonalLoop=1;jettySize=auto;html=1;shadow=0;strokeColor=#7EA6E0;strokeWidth=2;" edge="1" parent="1" source="F5_PWc8lOzp_SU4X4ztF-31" target="F5_PWc8lOzp_SU4X4ztF-50">
          <mxGeometry relative="1" as="geometry" />
        </mxCell>
        <mxCell id="F5_PWc8lOzp_SU4X4ztF-31" value="&lt;br&gt;xxxabc12345def&lt;br&gt;12345ghxxx&lt;br&gt;..." style="shape=tape;whiteSpace=wrap;html=1;align=left;" vertex="1" parent="1">
          <mxGeometry x="960" y="10" width="140" height="120" as="geometry" />
        </mxCell>
        <mxCell id="F5_PWc8lOzp_SU4X4ztF-70" style="edgeStyle=orthogonalEdgeStyle;rounded=1;sketch=0;jumpSize=25;orthogonalLoop=1;jettySize=auto;html=1;entryX=0.5;entryY=0;entryDx=0;entryDy=0;shadow=0;strokeColor=#7EA6E0;strokeWidth=2;" edge="1" parent="1" source="F5_PWc8lOzp_SU4X4ztF-33" target="F5_PWc8lOzp_SU4X4ztF-52">
          <mxGeometry relative="1" as="geometry" />
        </mxCell>
        <mxCell id="F5_PWc8lOzp_SU4X4ztF-33" value="&lt;i&gt;prefix&lt;sub&gt;4&lt;/sub&gt;&lt;/i&gt; (&lt;i&gt;abc&lt;/i&gt;) is matched&lt;br&gt;..." style="shape=document;whiteSpace=wrap;html=1;boundedLbl=1;align=left;" vertex="1" parent="1">
          <mxGeometry x="960" y="340" width="140" height="80" as="geometry" />
        </mxCell>
        <mxCell id="F5_PWc8lOzp_SU4X4ztF-34" value="&lt;i&gt;RE&lt;sub&gt;4&lt;/sub&gt;&lt;/i&gt;&amp;nbsp; is matched&lt;br&gt;..." style="shape=document;whiteSpace=wrap;html=1;boundedLbl=1;align=left;" vertex="1" parent="1">
          <mxGeometry x="960" y="625" width="140" height="80" as="geometry" />
        </mxCell>
        <mxCell id="F5_PWc8lOzp_SU4X4ztF-35" value="&lt;b&gt;Regex Set&lt;/b&gt;" style="text;html=1;strokeColor=none;fillColor=none;align=center;verticalAlign=middle;whiteSpace=wrap;rounded=0;" vertex="1" parent="1">
          <mxGeometry x="130" y="442" width="70" height="20" as="geometry" />
        </mxCell>
        <mxCell id="F5_PWc8lOzp_SU4X4ztF-36" value="&lt;b&gt;Prefix Set&lt;/b&gt;" style="text;html=1;strokeColor=none;fillColor=none;align=center;verticalAlign=middle;whiteSpace=wrap;rounded=0;" vertex="1" parent="1">
          <mxGeometry x="343" y="281" width="70" height="20" as="geometry" />
        </mxCell>
        <mxCell id="F5_PWc8lOzp_SU4X4ztF-37" value="&lt;b&gt;Postfix Set&lt;/b&gt;" style="text;html=1;strokeColor=none;fillColor=none;align=center;verticalAlign=middle;whiteSpace=wrap;rounded=0;" vertex="1" parent="1">
          <mxGeometry x="345" y="604" width="70" height="20" as="geometry" />
        </mxCell>
        <mxCell id="F5_PWc8lOzp_SU4X4ztF-38" value="&lt;b&gt;Relation Mapping Table&lt;br&gt;(RMT)&lt;br&gt;&lt;/b&gt;" style="text;html=1;strokeColor=none;fillColor=none;align=center;verticalAlign=middle;whiteSpace=wrap;rounded=0;" vertex="1" parent="1">
          <mxGeometry x="743" y="452" width="140" height="20" as="geometry" />
        </mxCell>
        <mxCell id="F5_PWc8lOzp_SU4X4ztF-39" value="&lt;b&gt;Input Traffic&lt;/b&gt;" style="text;html=1;strokeColor=none;fillColor=none;align=center;verticalAlign=middle;whiteSpace=wrap;rounded=0;" vertex="1" parent="1">
          <mxGeometry x="1023" y="108" width="90" height="20" as="geometry" />
        </mxCell>
        <mxCell id="F5_PWc8lOzp_SU4X4ztF-40" value="&lt;b&gt;Prefix Matches&lt;/b&gt;" style="text;html=1;strokeColor=none;fillColor=none;align=center;verticalAlign=middle;whiteSpace=wrap;rounded=0;" vertex="1" parent="1">
          <mxGeometry x="1031" y="420" width="87" height="20" as="geometry" />
        </mxCell>
        <mxCell id="F5_PWc8lOzp_SU4X4ztF-41" value="&lt;b&gt;Regex Matches&lt;/b&gt;" style="text;html=1;strokeColor=none;fillColor=none;align=center;verticalAlign=middle;whiteSpace=wrap;rounded=0;" vertex="1" parent="1">
          <mxGeometry x="1024.5" y="700" width="95.5" height="20" as="geometry" />
        </mxCell>
        <mxCell id="F5_PWc8lOzp_SU4X4ztF-42" value="" style="endArrow=none;dashed=1;html=1;strokeWidth=3;" edge="1" parent="1">
          <mxGeometry width="50" height="50" relative="1" as="geometry">
            <mxPoint x="910" y="760" as="sourcePoint" />
            <mxPoint x="910" y="10" as="targetPoint" />
          </mxGeometry>
        </mxCell>
        <mxCell id="F5_PWc8lOzp_SU4X4ztF-43" value="" style="endArrow=classic;startArrow=classic;html=1;" edge="1" parent="1">
          <mxGeometry width="50" height="50" relative="1" as="geometry">
            <mxPoint x="20" y="742" as="sourcePoint" />
            <mxPoint x="900" y="742" as="targetPoint" />
          </mxGeometry>
        </mxCell>
        <mxCell id="F5_PWc8lOzp_SU4X4ztF-44" value="&lt;i&gt;&lt;font style=&quot;font-size: 18px&quot;&gt;&amp;nbsp;Compiling&amp;nbsp;&lt;/font&gt;&lt;/i&gt;" style="edgeLabel;html=1;align=center;verticalAlign=middle;resizable=0;points=[];" vertex="1" connectable="0" parent="F5_PWc8lOzp_SU4X4ztF-43">
          <mxGeometry x="-0.034" y="-2" relative="1" as="geometry">
            <mxPoint y="-3" as="offset" />
          </mxGeometry>
        </mxCell>
        <mxCell id="F5_PWc8lOzp_SU4X4ztF-45" value="" style="endArrow=classic;startArrow=classic;html=1;" edge="1" parent="1">
          <mxGeometry width="50" height="50" relative="1" as="geometry">
            <mxPoint x="920" y="742" as="sourcePoint" />
            <mxPoint x="1130" y="742" as="targetPoint" />
          </mxGeometry>
        </mxCell>
        <mxCell id="F5_PWc8lOzp_SU4X4ztF-46" value="&lt;i&gt;&lt;font style=&quot;font-size: 18px&quot;&gt;&amp;nbsp;Matching&amp;nbsp;&lt;/font&gt;&lt;/i&gt;" style="edgeLabel;html=1;align=center;verticalAlign=middle;resizable=0;points=[];" vertex="1" connectable="0" parent="F5_PWc8lOzp_SU4X4ztF-45">
          <mxGeometry x="-0.034" y="-2" relative="1" as="geometry">
            <mxPoint y="-3" as="offset" />
          </mxGeometry>
        </mxCell>
        <mxCell id="F5_PWc8lOzp_SU4X4ztF-69" style="edgeStyle=orthogonalEdgeStyle;rounded=1;sketch=0;jumpSize=25;orthogonalLoop=1;jettySize=auto;html=1;entryX=0.5;entryY=0;entryDx=0;entryDy=0;shadow=0;strokeColor=#7EA6E0;strokeWidth=2;" edge="1" parent="1" source="F5_PWc8lOzp_SU4X4ztF-50" target="F5_PWc8lOzp_SU4X4ztF-33">
          <mxGeometry relative="1" as="geometry" />
        </mxCell>
        <mxCell id="F5_PWc8lOzp_SU4X4ztF-50" value="FPGA&lt;br&gt;(parallel matching of front-end DFAs)" style="rounded=1;whiteSpace=wrap;html=1;shadow=0;glass=0;sketch=0;fillColor=#9BA7B0;" vertex="1" parent="1">
          <mxGeometry x="970" y="200" width="120" height="70" as="geometry" />
        </mxCell>
        <mxCell id="F5_PWc8lOzp_SU4X4ztF-71" style="edgeStyle=orthogonalEdgeStyle;rounded=1;sketch=0;jumpSize=25;orthogonalLoop=1;jettySize=auto;html=1;entryX=0.5;entryY=0;entryDx=0;entryDy=0;shadow=0;strokeColor=#7EA6E0;strokeWidth=2;" edge="1" parent="1" source="F5_PWc8lOzp_SU4X4ztF-52" target="F5_PWc8lOzp_SU4X4ztF-34">
          <mxGeometry relative="1" as="geometry" />
        </mxCell>
        <mxCell id="F5_PWc8lOzp_SU4X4ztF-52" value="CPU&lt;br&gt;(matching of back-end DFAs)" style="rounded=1;whiteSpace=wrap;html=1;shadow=0;glass=0;sketch=0;fillColor=#9BA7B0;" vertex="1" parent="1">
          <mxGeometry x="970" y="500" width="120" height="70" as="geometry" />
        </mxCell>
        <mxCell id="F5_PWc8lOzp_SU4X4ztF-74" value="" style="rounded=1;whiteSpace=wrap;html=1;shadow=0;glass=0;sketch=0;fillColor=none;dashed=1;strokeWidth=2;strokeColor=#FF3333;" vertex="1" parent="1">
          <mxGeometry x="215" y="6" width="680" height="310" as="geometry" />
        </mxCell>
        <mxCell id="F5_PWc8lOzp_SU4X4ztF-75" value="" style="rounded=1;whiteSpace=wrap;html=1;shadow=0;glass=0;sketch=0;fillColor=none;dashed=1;strokeWidth=2;strokeColor=#FF3333;" vertex="1" parent="1">
          <mxGeometry x="217" y="479" width="680" height="200" as="geometry" />
        </mxCell>
        <mxCell id="F5_PWc8lOzp_SU4X4ztF-76" value="&lt;font style=&quot;font-size: 13px&quot; color=&quot;#ff3333&quot;&gt;Front-end DFA generating&lt;/font&gt;" style="text;html=1;strokeColor=none;fillColor=none;align=center;verticalAlign=middle;whiteSpace=wrap;rounded=0;shadow=0;glass=0;dashed=1;sketch=0;" vertex="1" parent="1">
          <mxGeometry x="230" y="35" width="160" height="20" as="geometry" />
        </mxCell>
        <mxCell id="F5_PWc8lOzp_SU4X4ztF-77" value="&lt;font style=&quot;font-size: 13px&quot; color=&quot;#ff3333&quot;&gt;Back-end DFA generating&lt;/font&gt;" style="text;html=1;strokeColor=none;fillColor=none;align=center;verticalAlign=middle;whiteSpace=wrap;rounded=0;shadow=0;glass=0;dashed=1;sketch=0;" vertex="1" parent="1">
          <mxGeometry x="230" y="650" width="160" height="20" as="geometry" />
        </mxCell>
      </root>
    </mxGraphModel>
  </diagram>
</mxfile>
